<mxfile host="app.diagrams.net" modified="2023-05-01T17:47:00.127Z" agent="5.0 (Windows NT 10.0; Win64; x64) AppleWebKit/537.36 (KHTML, like Gecko) Chrome/112.0.0.0 Safari/537.36" etag="Dq_70jz1spNGFejqWscU" version="20.8.20" type="github">
  <diagram name="Page-1" id="DmIdj5LOLqRMzLJ2gPiF">
    <mxGraphModel dx="4213" dy="1447" grid="1" gridSize="10" guides="1" tooltips="1" connect="1" arrows="1" fold="1" page="1" pageScale="1" pageWidth="1169" pageHeight="1654" math="0" shadow="0">
      <root>
        <mxCell id="0" />
        <mxCell id="1" parent="0" />
        <mxCell id="Y5ffWVeLKaedBnNB1SG8-2" value="" style="html=1;overflow=block;blockSpacing=1;whiteSpace=wrap;fontSize=13;spacing=3.8;strokeColor=#3a414a;strokeOpacity=100;rounded=1;absoluteArcSize=1;arcSize=9;strokeWidth=0.8;lucidId=Gu1TGajPd.M8;" vertex="1" parent="1">
          <mxGeometry x="75" y="262" width="290" height="363" as="geometry" />
        </mxCell>
        <mxCell id="Y5ffWVeLKaedBnNB1SG8-4" value="" style="html=1;overflow=block;blockSpacing=1;whiteSpace=wrap;fontSize=13;spacing=3.8;strokeColor=#b0084d;strokeOpacity=100;strokeWidth=0.8;lucidId=mw0TCf-SKjKt;" vertex="1" parent="1">
          <mxGeometry x="-764" y="51" width="644" height="536" as="geometry" />
        </mxCell>
        <mxCell id="Y5ffWVeLKaedBnNB1SG8-5" value="&lt;b&gt;       AZ1 &lt;/b&gt;(us-east-1a)" style="html=1;overflow=block;blockSpacing=1;whiteSpace=wrap;verticalAlign=top;dashed=1;dashPattern=5 5;fontColor=#0E82B8;container=1;pointerEvents=0;collapsible=0;recursiveResize=0;fontSize=13;align=right;spacing=0;strokeColor=#147eba;strokeOpacity=100;fillOpacity=0;rounded=1;absoluteArcSize=1;arcSize=9;fillColor=#ffffff;strokeWidth=0.8;lucidId=Z4ZT~RqnWNvc;" vertex="1" parent="1">
          <mxGeometry x="1190" y="314" width="720" height="492" as="geometry" />
        </mxCell>
        <mxCell id="Y5ffWVeLKaedBnNB1SG8-3" value="" style="html=1;overflow=block;blockSpacing=1;whiteSpace=wrap;fontSize=13;spacing=9;strokeColor=#d86613;strokeOpacity=100;strokeWidth=0.8;lucidId=Tg1TGxLeuST_;" vertex="1" parent="Y5ffWVeLKaedBnNB1SG8-5">
          <mxGeometry x="110" y="16" width="158" height="476" as="geometry" />
        </mxCell>
        <mxCell id="Y5ffWVeLKaedBnNB1SG8-155" style="edgeStyle=orthogonalEdgeStyle;rounded=0;orthogonalLoop=1;jettySize=auto;html=1;fontSize=14;fontColor=#1A1A1A;elbow=vertical;" edge="1" parent="Y5ffWVeLKaedBnNB1SG8-5" source="Y5ffWVeLKaedBnNB1SG8-7">
          <mxGeometry relative="1" as="geometry">
            <mxPoint x="780" y="116" as="targetPoint" />
          </mxGeometry>
        </mxCell>
        <mxCell id="Y5ffWVeLKaedBnNB1SG8-7" value="SubnetPriv1&lt;br&gt;&lt;b&gt;&lt;font style=&quot;font-size: 14px;&quot;&gt;10.0.12.0/22&lt;/font&gt;&lt;/b&gt;" style="html=1;overflow=block;blockSpacing=1;whiteSpace=wrap;shape=mxgraph.aws4.group;grIcon=mxgraph.aws4.group_security_group;grStroke=0;verticalAlign=top;align=left;grIconSize=40;spacingLeft=45;spacingTop=5;strokeColor=#0E82B8;container=1;pointerEvents=0;collapsible=0;recursiveResize=0;fontSize=13;fontColor=#147eba;spacing=0;strokeOpacity=100;fillOpacity=13;rounded=1;absoluteArcSize=1;arcSize=9;fillColor=#147eba;strokeWidth=0;lucidId=D6ZTme_0ZaUr;" vertex="1" parent="Y5ffWVeLKaedBnNB1SG8-5">
          <mxGeometry x="502" y="42" width="178" height="148" as="geometry" />
        </mxCell>
        <mxCell id="Y5ffWVeLKaedBnNB1SG8-149" style="rounded=0;orthogonalLoop=1;jettySize=auto;html=1;fontSize=14;fontColor=#1A1A1A;elbow=vertical;edgeStyle=orthogonalEdgeStyle;" edge="1" parent="Y5ffWVeLKaedBnNB1SG8-5" source="Y5ffWVeLKaedBnNB1SG8-6">
          <mxGeometry relative="1" as="geometry">
            <mxPoint x="780" y="206" as="targetPoint" />
            <Array as="points">
              <mxPoint x="250" y="216" />
              <mxPoint x="780" y="216" />
            </Array>
          </mxGeometry>
        </mxCell>
        <mxCell id="Y5ffWVeLKaedBnNB1SG8-6" value="SubnetPub1&lt;br&gt;&lt;b&gt;&lt;font style=&quot;font-size: 14px;&quot;&gt;10.0.0.0/22&lt;/font&gt;&lt;/b&gt;" style="html=1;overflow=block;blockSpacing=1;whiteSpace=wrap;shape=mxgraph.aws4.group;grIcon=mxgraph.aws4.group_security_group;grStroke=0;verticalAlign=top;align=right;grIconSize=40;spacingLeft=45;spacingTop=5;strokeColor=#2C8723;fontColor=#2C8723;container=0;pointerEvents=0;collapsible=0;recursiveResize=0;fontSize=13;spacing=0;strokeOpacity=100;fillOpacity=13;rounded=1;absoluteArcSize=1;arcSize=9;fillColor=#248814;strokeWidth=0;lucidId=A6ZT0tNM1aIh;" vertex="1" parent="Y5ffWVeLKaedBnNB1SG8-5">
          <mxGeometry x="10" y="42" width="480" height="148" as="geometry" />
        </mxCell>
        <mxCell id="Y5ffWVeLKaedBnNB1SG8-51" value="" style="html=1;overflow=block;blockSpacing=1;whiteSpace=wrap;shape=mxgraph.aws4.resourceIcon;resIcon=mxgraph.aws4.ecs;verticalLabelPosition=bottom;align=center;verticalAlign=top;strokeColor=#ffffff;pointerEvents=1;fontSize=13;spacing=0;strokeOpacity=100;rounded=1;absoluteArcSize=1;arcSize=9;fillColor=#d86613;strokeWidth=0.8;lucidId=wg1THyplZPJS;" vertex="1" parent="Y5ffWVeLKaedBnNB1SG8-5">
          <mxGeometry x="110" y="17" width="44" height="44" as="geometry" />
        </mxCell>
        <mxCell id="Y5ffWVeLKaedBnNB1SG8-129" value="&lt;font color=&quot;#d96817&quot;&gt;Cluster (Fargate)&lt;/font&gt;" style="text;strokeColor=none;align=center;fillColor=none;html=1;verticalAlign=middle;whiteSpace=wrap;rounded=0;fontSize=14;" vertex="1" parent="Y5ffWVeLKaedBnNB1SG8-5">
          <mxGeometry x="129" y="18" width="168" height="30" as="geometry" />
        </mxCell>
        <mxCell id="Y5ffWVeLKaedBnNB1SG8-9" value="&lt;b&gt;       AZ2 &lt;/b&gt;(us-east-1b)" style="html=1;overflow=block;blockSpacing=1;whiteSpace=wrap;verticalAlign=top;dashed=1;dashPattern=5 5;fontColor=#0E82B8;container=1;pointerEvents=0;collapsible=0;recursiveResize=0;fontSize=13;align=right;spacing=0;strokeColor=#147eba;strokeOpacity=100;fillOpacity=0;rounded=1;absoluteArcSize=1;arcSize=9;fillColor=#ffffff;strokeWidth=0.8;lucidId=if0TXPkdlUMy;" vertex="1" parent="1">
          <mxGeometry x="1190" y="550" width="720" height="121" as="geometry" />
        </mxCell>
        <mxCell id="Y5ffWVeLKaedBnNB1SG8-10" value="&lt;blockquote style=&quot;margin: 0 0 0 40px; border: none; padding: 0px;&quot;&gt;&lt;div style=&quot;&quot;&gt;&lt;span style=&quot;background-color: initial;&quot;&gt;SubnetPub2&lt;/span&gt;&lt;/div&gt;&lt;div style=&quot;&quot;&gt;&lt;span style=&quot;background-color: initial;&quot;&gt;&lt;b&gt;&lt;font style=&quot;font-size: 14px;&quot;&gt;10.0.4.0/22&lt;/font&gt;&lt;/b&gt;&lt;/span&gt;&lt;/div&gt;&lt;/blockquote&gt;" style="html=1;overflow=block;blockSpacing=1;whiteSpace=wrap;shape=mxgraph.aws4.group;grIcon=mxgraph.aws4.group_security_group;grStroke=0;verticalAlign=top;align=right;grIconSize=40;spacingLeft=45;spacingTop=5;strokeColor=#2C8723;fontColor=#2C8723;container=1;pointerEvents=0;collapsible=0;recursiveResize=0;fontSize=13;spacing=0;strokeOpacity=100;fillOpacity=13;rounded=1;absoluteArcSize=1;arcSize=9;fillColor=#248814;strokeWidth=0;lucidId=if0TEgoTsi_F;" vertex="1" parent="Y5ffWVeLKaedBnNB1SG8-9">
          <mxGeometry x="10" y="28" width="480" height="70" as="geometry" />
        </mxCell>
        <mxCell id="Y5ffWVeLKaedBnNB1SG8-156" style="edgeStyle=orthogonalEdgeStyle;rounded=0;orthogonalLoop=1;jettySize=auto;html=1;fontSize=14;fontColor=#1A1A1A;elbow=vertical;" edge="1" parent="Y5ffWVeLKaedBnNB1SG8-9" source="Y5ffWVeLKaedBnNB1SG8-11">
          <mxGeometry relative="1" as="geometry">
            <mxPoint x="780" y="63" as="targetPoint" />
          </mxGeometry>
        </mxCell>
        <mxCell id="Y5ffWVeLKaedBnNB1SG8-11" value="SubnetPriv2&lt;br&gt;&lt;b&gt;&lt;font style=&quot;font-size: 14px;&quot;&gt;10.0.16.0/22&lt;/font&gt;&lt;/b&gt;" style="html=1;overflow=block;blockSpacing=1;whiteSpace=wrap;shape=mxgraph.aws4.group;grIcon=mxgraph.aws4.group_security_group;grStroke=0;verticalAlign=top;align=left;grIconSize=40;spacingLeft=45;spacingTop=5;strokeColor=#0E82B8;container=1;pointerEvents=0;collapsible=0;recursiveResize=0;fontSize=13;fontColor=#147eba;spacing=0;strokeOpacity=100;fillOpacity=13;rounded=1;absoluteArcSize=1;arcSize=9;fillColor=#147eba;strokeWidth=0;lucidId=if0TMw7SNUd1;" vertex="1" parent="Y5ffWVeLKaedBnNB1SG8-9">
          <mxGeometry x="502" y="28" width="170" height="70" as="geometry" />
        </mxCell>
        <mxCell id="Y5ffWVeLKaedBnNB1SG8-12" value="&lt;b&gt;       AZ3 &lt;/b&gt;(us-east-1c)" style="html=1;overflow=block;blockSpacing=1;whiteSpace=wrap;verticalAlign=top;dashed=1;dashPattern=5 5;fontColor=#0E82B8;container=1;pointerEvents=0;collapsible=0;recursiveResize=0;fontSize=13;align=right;spacing=0;strokeColor=#147eba;strokeOpacity=100;fillOpacity=0;rounded=1;absoluteArcSize=1;arcSize=0;fillColor=#ffffff;strokeWidth=0.8;lucidId=pf0TN7_UmOL7;" vertex="1" parent="1">
          <mxGeometry x="1190" y="682" width="720" height="139" as="geometry" />
        </mxCell>
        <mxCell id="Y5ffWVeLKaedBnNB1SG8-13" value="SubnetPub3&lt;br&gt;&lt;b&gt;&lt;font style=&quot;font-size: 14px;&quot;&gt;10.0.8.0/22&lt;/font&gt;&lt;/b&gt;" style="html=1;overflow=block;blockSpacing=1;whiteSpace=wrap;shape=mxgraph.aws4.group;grIcon=mxgraph.aws4.group_security_group;grStroke=0;verticalAlign=top;align=right;grIconSize=40;spacingLeft=45;spacingTop=5;strokeColor=#2C8723;fontColor=#2C8723;container=1;pointerEvents=0;collapsible=0;recursiveResize=0;fontSize=13;spacing=0;strokeOpacity=100;fillOpacity=13;rounded=1;absoluteArcSize=1;arcSize=9;fillColor=#248814;strokeWidth=0;lucidId=pf0Tl75vCmeT;" vertex="1" parent="Y5ffWVeLKaedBnNB1SG8-12">
          <mxGeometry x="10" y="33.5" width="480" height="72" as="geometry" />
        </mxCell>
        <mxCell id="Y5ffWVeLKaedBnNB1SG8-157" style="edgeStyle=orthogonalEdgeStyle;rounded=0;orthogonalLoop=1;jettySize=auto;html=1;fontSize=14;fontColor=#1A1A1A;elbow=vertical;" edge="1" parent="Y5ffWVeLKaedBnNB1SG8-12" source="Y5ffWVeLKaedBnNB1SG8-14">
          <mxGeometry relative="1" as="geometry">
            <mxPoint x="780" y="67" as="targetPoint" />
          </mxGeometry>
        </mxCell>
        <mxCell id="Y5ffWVeLKaedBnNB1SG8-14" value="SubnetPriv3&lt;br&gt;&lt;b&gt;&lt;font style=&quot;font-size: 14px;&quot;&gt;10.0.20.0/22&lt;/font&gt;&lt;/b&gt;" style="html=1;overflow=block;blockSpacing=1;whiteSpace=wrap;shape=mxgraph.aws4.group;grIcon=mxgraph.aws4.group_security_group;grStroke=0;verticalAlign=top;align=left;grIconSize=40;spacingLeft=45;spacingTop=5;strokeColor=#0E82B8;container=1;pointerEvents=0;collapsible=0;recursiveResize=0;fontSize=13;fontColor=#147eba;spacing=0;strokeOpacity=100;fillOpacity=13;rounded=1;absoluteArcSize=1;arcSize=9;fillColor=#147eba;strokeWidth=0;lucidId=pf0TrG4AAMhS;" vertex="1" parent="Y5ffWVeLKaedBnNB1SG8-12">
          <mxGeometry x="502" y="32" width="168" height="70" as="geometry" />
        </mxCell>
        <mxCell id="Y5ffWVeLKaedBnNB1SG8-16" value="" style="html=1;overflow=block;blockSpacing=1;whiteSpace=wrap;shape=mxgraph.aws4.router;labelPosition=center;verticalLabelPosition=bottom;align=center;verticalAlign=top;pointerEvents=1;fontSize=13;spacing=0;strokeColor=#3a414a;strokeOpacity=100;rounded=1;absoluteArcSize=1;arcSize=9;fillColor=#693cc5;strokeWidth=0.8;lucidId=3-ZTYZ8C4m2f;" vertex="1" parent="1">
          <mxGeometry x="1649" y="200" width="60" height="60" as="geometry" />
        </mxCell>
        <mxCell id="Y5ffWVeLKaedBnNB1SG8-17" value="" style="html=1;jettySize=18;whiteSpace=wrap;fontSize=13;strokeColor=#3a414a;strokeOpacity=100;strokeWidth=0.8;rounded=1;arcSize=12;edgeStyle=orthogonalEdgeStyle;startArrow=block;startFill=1;endArrow=block;endFill=1;exitX=1;exitY=0.5;exitPerimeter=0;entryX=0.5;entryY=0;entryPerimeter=0;lucidId=h~ZTw6QrdE8z;" edge="1" parent="1" target="Y5ffWVeLKaedBnNB1SG8-16">
          <mxGeometry width="100" height="100" relative="1" as="geometry">
            <Array as="points" />
            <mxPoint x="1550" y="142.99999999999955" as="sourcePoint" />
          </mxGeometry>
        </mxCell>
        <mxCell id="Y5ffWVeLKaedBnNB1SG8-18" value="local (10.0.0.0/32)" style="text;html=1;resizable=0;labelBackgroundColor=default;align=center;verticalAlign=middle;fontStyle=1;fontColor=#333333;fontSize=13.3;" vertex="1" parent="Y5ffWVeLKaedBnNB1SG8-17">
          <mxGeometry x="0.43256997455449553" relative="1" as="geometry">
            <mxPoint x="-28" y="-5" as="offset" />
          </mxGeometry>
        </mxCell>
        <mxCell id="Y5ffWVeLKaedBnNB1SG8-19" value="CruddurIGW" style="html=1;overflow=block;blockSpacing=1;whiteSpace=wrap;shape=mxgraph.aws4.internet_gateway;labelPosition=center;verticalLabelPosition=bottom;align=center;verticalAlign=top;pointerEvents=1;fontSize=16.7;fontColor=#3a414a;spacing=0;strokeColor=#3a414a;strokeOpacity=100;rounded=1;absoluteArcSize=1;arcSize=9;fillColor=#693cc5;strokeWidth=0.8;lucidId=O~ZTAr_EYrPd;" vertex="1" parent="1">
          <mxGeometry x="1205" y="117" width="60" height="60" as="geometry" />
        </mxCell>
        <mxCell id="Y5ffWVeLKaedBnNB1SG8-20" value="" style="html=1;jettySize=18;whiteSpace=wrap;fontSize=13;strokeColor=#3a414a;strokeOpacity=100;strokeWidth=0.8;rounded=1;arcSize=12;edgeStyle=orthogonalEdgeStyle;startArrow=block;startFill=1;endArrow=block;endFill=1;exitX=0;exitY=0.5;exitPerimeter=0;entryX=0.99;entryY=0.4;entryPerimeter=0;lucidId=X~ZTACHfxG1c;" edge="1" parent="1" target="Y5ffWVeLKaedBnNB1SG8-19">
          <mxGeometry width="100" height="100" relative="1" as="geometry">
            <Array as="points" />
            <mxPoint x="1460" y="142.99999999999955" as="sourcePoint" />
          </mxGeometry>
        </mxCell>
        <mxCell id="Y5ffWVeLKaedBnNB1SG8-21" value="0.0.0.0/32" style="text;html=1;resizable=0;labelBackgroundColor=default;align=center;verticalAlign=middle;fontStyle=1;fontColor=#333333;fontSize=13.3;" vertex="1" parent="Y5ffWVeLKaedBnNB1SG8-20">
          <mxGeometry relative="1" as="geometry" />
        </mxCell>
        <mxCell id="Y5ffWVeLKaedBnNB1SG8-31" value="Cruddur Stack" style="html=1;overflow=block;blockSpacing=1;whiteSpace=wrap;fontSize=16.7;fontColor=#3a414a;spacing=3.8;strokeOpacity=0;fillOpacity=0;rounded=1;absoluteArcSize=1;arcSize=9;fillColor=#ffffff;strokeWidth=0.8;lucidId=dE0TspO_Agiy;" vertex="1" parent="1">
          <mxGeometry x="-700" y="77" width="180" height="45" as="geometry" />
        </mxCell>
        <mxCell id="Y5ffWVeLKaedBnNB1SG8-34" value="cfn-artifacts-ar" style="html=1;overflow=block;blockSpacing=1;whiteSpace=wrap;shape=mxgraph.aws4.bucket_with_objects;labelPosition=center;verticalLabelPosition=bottom;align=center;verticalAlign=top;pointerEvents=1;fontSize=16.7;fontColor=#3a414a;spacing=0;strokeColor=#3a414a;strokeOpacity=100;rounded=1;absoluteArcSize=1;arcSize=9;fillColor=#3f8624;strokeWidth=0.8;lucidId=dI0Tzxsv~msY;" vertex="1" parent="1">
          <mxGeometry x="-1026" y="293" width="58" height="60" as="geometry" />
        </mxCell>
        <mxCell id="Y5ffWVeLKaedBnNB1SG8-35" value="" style="html=1;jettySize=18;whiteSpace=wrap;fontSize=13;strokeColor=#3a414a;strokeOpacity=100;strokeWidth=0.8;rounded=1;arcSize=12;edgeStyle=orthogonalEdgeStyle;startArrow=block;startFill=1;endArrow=block;endFill=1;exitX=0.958;exitY=0.5;exitPerimeter=0;entryX=-0.001;entryY=0.625;entryPerimeter=0;lucidId=yI0TNxTwH4DH;" edge="1" parent="1" source="Y5ffWVeLKaedBnNB1SG8-34" target="Y5ffWVeLKaedBnNB1SG8-4">
          <mxGeometry width="100" height="100" relative="1" as="geometry">
            <Array as="points" />
          </mxGeometry>
        </mxCell>
        <mxCell id="Y5ffWVeLKaedBnNB1SG8-36" value="All CFN uploads are&#xa;stored in this bucket" style="text;html=1;resizable=0;labelBackgroundColor=default;align=center;verticalAlign=middle;fontColor=#333333;fontSize=13.3;" vertex="1" parent="Y5ffWVeLKaedBnNB1SG8-35">
          <mxGeometry relative="1" as="geometry" />
        </mxCell>
        <mxCell id="Y5ffWVeLKaedBnNB1SG8-37" value="" style="group;dropTarget=0;pointerEvents=0;" vertex="1" parent="1">
          <mxGeometry x="-670" y="327" width="306" height="224" as="geometry" />
        </mxCell>
        <mxCell id="Y5ffWVeLKaedBnNB1SG8-38" value="Networking Exports" style="html=1;overflow=block;blockSpacing=1;whiteSpace=wrap;fontSize=16.7;fontColor=#3a414a;align=left;spacing=9;verticalAlign=top;strokeColor=#3a414a;strokeOpacity=100;rounded=1;absoluteArcSize=1;arcSize=9;strokeWidth=0.8;lucidId=A80ToU6WK9eq;" vertex="1" parent="Y5ffWVeLKaedBnNB1SG8-37">
          <mxGeometry x="87" width="135" height="200" as="geometry" />
        </mxCell>
        <mxCell id="Y5ffWVeLKaedBnNB1SG8-41" value="VpcCidrBlock" style="html=1;overflow=block;blockSpacing=1;whiteSpace=wrap;fontSize=13.3;fontColor=#3a414a;spacing=0;strokeColor=#3a414a;strokeOpacity=100;rounded=1;absoluteArcSize=1;arcSize=9;strokeWidth=0.8;lucidId=7L0TkX8M1S7Z;" vertex="1" parent="Y5ffWVeLKaedBnNB1SG8-37">
          <mxGeometry x="98" y="70" width="112" height="17" as="geometry" />
        </mxCell>
        <mxCell id="Y5ffWVeLKaedBnNB1SG8-42" value="SubnetCidrBlocks" style="html=1;overflow=block;blockSpacing=1;whiteSpace=wrap;fontSize=13.3;fontColor=#3a414a;spacing=0;strokeColor=#3a414a;strokeOpacity=100;rounded=1;absoluteArcSize=1;arcSize=9;strokeWidth=0.8;lucidId=9L0T8~TS0tZD;" vertex="1" parent="Y5ffWVeLKaedBnNB1SG8-37">
          <mxGeometry x="98" y="89" width="112" height="17" as="geometry" />
        </mxCell>
        <mxCell id="Y5ffWVeLKaedBnNB1SG8-43" value="PublicSubnetIds" style="html=1;overflow=block;blockSpacing=1;whiteSpace=wrap;fontSize=14;fontColor=#3a414a;spacing=0;strokeColor=#3a414a;strokeOpacity=100;fillOpacity=100;rounded=1;absoluteArcSize=1;arcSize=9;fillColor=#fff7a1;strokeWidth=0.8;lucidId=aM0T7n-Lwh~_;" vertex="1" parent="Y5ffWVeLKaedBnNB1SG8-37">
          <mxGeometry x="98" y="129" width="112" height="17" as="geometry" />
        </mxCell>
        <mxCell id="Y5ffWVeLKaedBnNB1SG8-44" value="SubnetIds" style="html=1;overflow=block;blockSpacing=1;whiteSpace=wrap;fontSize=13.3;fontColor=#3a414a;spacing=0;strokeColor=#3a414a;strokeOpacity=100;rounded=1;absoluteArcSize=1;arcSize=9;strokeWidth=0.8;lucidId=5O0TtLe9554C;" vertex="1" parent="Y5ffWVeLKaedBnNB1SG8-37">
          <mxGeometry x="98" y="109" width="112" height="17" as="geometry" />
        </mxCell>
        <mxCell id="Y5ffWVeLKaedBnNB1SG8-45" value="VpcId" style="html=1;overflow=block;blockSpacing=1;whiteSpace=wrap;fontSize=13.3;fontColor=#3a414a;spacing=0;strokeColor=#3a414a;strokeOpacity=100;fillOpacity=100;rounded=1;absoluteArcSize=1;arcSize=9;fillColor=#fff7a1;strokeWidth=0.8;lucidId=dP0TKXAvNs3V;" vertex="1" parent="Y5ffWVeLKaedBnNB1SG8-37">
          <mxGeometry x="98" y="51" width="112" height="17" as="geometry" />
        </mxCell>
        <mxCell id="Y5ffWVeLKaedBnNB1SG8-46" value="PrivateSubnetIds" style="html=1;overflow=block;blockSpacing=1;whiteSpace=wrap;fontSize=14;fontColor=#3a414a;spacing=0;strokeColor=#3a414a;strokeOpacity=100;rounded=1;absoluteArcSize=1;arcSize=9;strokeWidth=0.8;lucidId=xb1TEO2NR7rC;" vertex="1" parent="Y5ffWVeLKaedBnNB1SG8-37">
          <mxGeometry x="98" y="148" width="112" height="17" as="geometry" />
        </mxCell>
        <mxCell id="Y5ffWVeLKaedBnNB1SG8-47" value="AvailabilityZones" style="html=1;overflow=block;blockSpacing=1;whiteSpace=wrap;fontSize=13.3;fontColor=#3a414a;spacing=0;strokeColor=#3a414a;strokeOpacity=100;rounded=1;absoluteArcSize=1;arcSize=9;strokeWidth=0.8;lucidId=Cb1TjHKciOx0;" vertex="1" parent="Y5ffWVeLKaedBnNB1SG8-37">
          <mxGeometry x="98" y="171" width="112" height="17" as="geometry" />
        </mxCell>
        <mxCell id="Y5ffWVeLKaedBnNB1SG8-48" value="" style="html=1;jettySize=18;whiteSpace=wrap;fontSize=13;strokeColor=#3a414a;strokeOpacity=100;strokeWidth=0.8;rounded=1;arcSize=12;edgeStyle=orthogonalEdgeStyle;startArrow=block;startFill=1;endArrow=block;endFill=1;exitX=1;exitY=0.5;exitPerimeter=0;entryX=-0.003;entryY=0.5;entryPerimeter=0;lucidId=WX0TaIPggkP6;" edge="1" parent="Y5ffWVeLKaedBnNB1SG8-37" target="Y5ffWVeLKaedBnNB1SG8-45">
          <mxGeometry width="100" height="100" relative="1" as="geometry">
            <Array as="points" />
            <mxPoint x="36" y="59.5" as="sourcePoint" />
          </mxGeometry>
        </mxCell>
        <mxCell id="Y5ffWVeLKaedBnNB1SG8-49" value="" style="html=1;jettySize=18;whiteSpace=wrap;fontSize=13;strokeColor=#3a414a;strokeOpacity=100;strokeWidth=0.8;rounded=1;arcSize=12;edgeStyle=orthogonalEdgeStyle;startArrow=block;startFill=1;endArrow=block;endFill=1;exitX=0;exitY=0.5;exitPerimeter=0;entryX=1.003;entryY=0.5;entryPerimeter=0;lucidId=5X0TQjPlyJ.j;" edge="1" parent="Y5ffWVeLKaedBnNB1SG8-37" target="Y5ffWVeLKaedBnNB1SG8-45">
          <mxGeometry width="100" height="100" relative="1" as="geometry">
            <Array as="points" />
            <mxPoint x="273" y="59.5" as="sourcePoint" />
          </mxGeometry>
        </mxCell>
        <mxCell id="Y5ffWVeLKaedBnNB1SG8-50" value="" style="html=1;jettySize=18;whiteSpace=wrap;fontSize=13;strokeColor=#3a414a;strokeOpacity=100;strokeWidth=0.8;rounded=1;arcSize=12;edgeStyle=orthogonalEdgeStyle;startArrow=none;endArrow=none;exitX=1.003;exitY=0.5;exitPerimeter=0;lucidId=Nd1TKQJoeuX1;" edge="1" parent="Y5ffWVeLKaedBnNB1SG8-37" source="Y5ffWVeLKaedBnNB1SG8-43">
          <mxGeometry width="100" height="100" relative="1" as="geometry">
            <Array as="points" />
            <mxPoint x="249" y="59" as="targetPoint" />
          </mxGeometry>
        </mxCell>
        <mxCell id="Y5ffWVeLKaedBnNB1SG8-53" value="&lt;div style=&quot;display: flex; justify-content: flex-start; text-align: left; align-items: baseline; font-size: 0; line-height: 1.25;margin-top: -2px;&quot;&gt;&lt;span&gt;&lt;span style=&quot;font-size:18.3px;color:#3a414a;&quot;&gt;HTTPSListerner&#xa;&lt;/span&gt;&lt;/span&gt;&lt;/div&gt;&lt;div style=&quot;display: flex; justify-content: flex-start; text-align: left; align-items: baseline; font-size: 0; line-height: 1.25;margin-top: -2px;&quot;&gt;&lt;span&gt;&lt;span style=&quot;font-size:18.3px;color:#3a414a;&quot;&gt;Port 443&lt;/span&gt;&lt;/span&gt;&lt;/div&gt;" style="html=1;overflow=block;blockSpacing=1;whiteSpace=wrap;fontSize=13;spacing=9;verticalAlign=top;strokeColor=#3a414a;strokeOpacity=100;rounded=1;absoluteArcSize=1;arcSize=9;strokeWidth=0.8;lucidId=mp1TPzRQjrfS;" vertex="1" parent="1">
          <mxGeometry x="513" y="393" width="230" height="63" as="geometry" />
        </mxCell>
        <mxCell id="Y5ffWVeLKaedBnNB1SG8-54" value="" style="html=1;jettySize=18;whiteSpace=wrap;fontSize=13;strokeColor=#3a414a;strokeOpacity=100;strokeWidth=0.8;rounded=1;arcSize=12;edgeStyle=orthogonalEdgeStyle;startArrow=none;endArrow=block;endFill=1;exitX=1.001;exitY=0.5;exitPerimeter=0;entryX=1.001;entryY=0.5;entryPerimeter=0;lucidId=Jp1THk_QCc7.;" edge="1" parent="1" source="Y5ffWVeLKaedBnNB1SG8-52" target="Y5ffWVeLKaedBnNB1SG8-53">
          <mxGeometry width="100" height="100" relative="1" as="geometry">
            <Array as="points" />
          </mxGeometry>
        </mxCell>
        <mxCell id="Y5ffWVeLKaedBnNB1SG8-55" value="Redirects to" style="html=1;overflow=block;blockSpacing=1;whiteSpace=wrap;fontSize=18.3;fontColor=#3a414a;fontStyle=1;spacing=3.8;strokeOpacity=0;fillOpacity=0;rounded=1;absoluteArcSize=1;arcSize=9;fillColor=#ffffff;strokeWidth=0.8;lucidId=4p1TsErLXbFY;" vertex="1" parent="1">
          <mxGeometry x="753" y="369" width="180" height="45" as="geometry" />
        </mxCell>
        <mxCell id="Y5ffWVeLKaedBnNB1SG8-56" value="&lt;div style=&quot;display: flex; justify-content: flex-start; text-align: left; align-items: baseline; font-size: 0; line-height: 1.25;margin-top: -2px;&quot;&gt;&lt;span&gt;&lt;span style=&quot;font-size:18.3px;color:#3a414a;&quot;&gt;Backend Target Group&#xa;&lt;/span&gt;&lt;/span&gt;&lt;/div&gt;&lt;div style=&quot;display: flex; justify-content: flex-start; text-align: left; align-items: baseline; font-size: 0; line-height: 1.25;margin-top: -2px;&quot;&gt;&lt;span&gt;&lt;span style=&quot;font-size:18.3px;color:#3a414a;&quot;&gt;Healthcheck &quot;/api/health-check&quot;&lt;/span&gt;&lt;/span&gt;&lt;/div&gt;" style="html=1;overflow=block;blockSpacing=1;whiteSpace=wrap;fontSize=13;spacing=9;verticalAlign=top;strokeColor=#3a414a;strokeOpacity=100;rounded=1;absoluteArcSize=1;arcSize=9;strokeWidth=0.8;lucidId=rq1TCmNzaplq;" vertex="1" parent="1">
          <mxGeometry x="813" y="558" width="285" height="70" as="geometry" />
        </mxCell>
        <mxCell id="Y5ffWVeLKaedBnNB1SG8-57" value="&lt;div style=&quot;display: flex; justify-content: flex-start; text-align: left; align-items: baseline; font-size: 0; line-height: 1.25;margin-top: -2px;&quot;&gt;&lt;span&gt;&lt;span style=&quot;font-size:18.3px;color:#3a414a;&quot;&gt;Frontend Target Group&#xa;&lt;/span&gt;&lt;/span&gt;&lt;/div&gt;&lt;div style=&quot;display: flex; justify-content: flex-start; text-align: left; align-items: baseline; font-size: 0; line-height: 1.25;margin-top: -2px;&quot;&gt;&lt;span&gt;&lt;span style=&quot;font-size:18.3px;color:#3a414a;&quot;&gt;Healthcheck &quot;/&quot;&lt;/span&gt;&lt;/span&gt;&lt;/div&gt;" style="html=1;overflow=block;blockSpacing=1;whiteSpace=wrap;fontSize=13;spacing=9;verticalAlign=top;strokeColor=#3a414a;strokeOpacity=100;rounded=1;absoluteArcSize=1;arcSize=9;strokeWidth=0.8;lucidId=rq1TJoDe7SLl;" vertex="1" parent="1">
          <mxGeometry x="815" y="688" width="285" height="56" as="geometry" />
        </mxCell>
        <mxCell id="Y5ffWVeLKaedBnNB1SG8-58" value="" style="html=1;jettySize=18;whiteSpace=wrap;fontSize=13;strokeColor=#3a414a;strokeOpacity=100;strokeWidth=0.8;rounded=1;arcSize=12;edgeStyle=orthogonalEdgeStyle;startArrow=block;startFill=1;endArrow=block;endFill=1;exitX=0.5;exitY=1.005;exitPerimeter=0;entryX=-0.001;entryY=0.5;entryPerimeter=0;lucidId=Bq1Tb58wDm-E;" edge="1" parent="1" source="Y5ffWVeLKaedBnNB1SG8-53" target="Y5ffWVeLKaedBnNB1SG8-57">
          <mxGeometry width="100" height="100" relative="1" as="geometry">
            <Array as="points" />
          </mxGeometry>
        </mxCell>
        <mxCell id="Y5ffWVeLKaedBnNB1SG8-59" value="" style="html=1;jettySize=18;whiteSpace=wrap;fontSize=13;strokeColor=#3a414a;strokeOpacity=100;strokeWidth=0.8;rounded=1;arcSize=12;edgeStyle=orthogonalEdgeStyle;startArrow=none;endArrow=block;endFill=1;exitX=0.674;exitY=1.005;exitPerimeter=0;entryX=-0.001;entryY=0.5;entryPerimeter=0;lucidId=Gq1Takwi7JNx;" edge="1" parent="1" source="Y5ffWVeLKaedBnNB1SG8-53" target="Y5ffWVeLKaedBnNB1SG8-56">
          <mxGeometry width="100" height="100" relative="1" as="geometry">
            <Array as="points" />
          </mxGeometry>
        </mxCell>
        <mxCell id="Y5ffWVeLKaedBnNB1SG8-60" value="&lt;div style=&quot;display: flex; justify-content: flex-start; text-align: left; align-items: baseline; font-size: 0; line-height: 1.25;margin-top: -2px;&quot;&gt;&lt;span&gt;&lt;span style=&quot;font-size:18.3px;color:#3a414a;font-weight: bold;&quot;&gt;Forward to&#xa;&lt;/span&gt;&lt;/span&gt;&lt;/div&gt;&lt;div style=&quot;display: flex; justify-content: flex-start; text-align: left; align-items: baseline; font-size: 0; line-height: 1.25;margin-top: -2px;&quot;&gt;&lt;span&gt;&lt;span style=&quot;font-size:18.3px;color:#3a414a;&quot;&gt;&lt;span style=&quot;font-size:18.3px;color:#3a414a;&quot;&gt;Host Header: api.&lt;/span&gt;&lt;/span&gt;&lt;/span&gt;&lt;/div&gt;" style="html=1;overflow=block;blockSpacing=1;whiteSpace=wrap;fontSize=13;spacing=3.8;verticalAlign=top;strokeOpacity=0;fillOpacity=0;rounded=1;absoluteArcSize=1;arcSize=9;fillColor=#ffffff;strokeWidth=0.8;lucidId=Xq1TwTQ4jBMf;" vertex="1" parent="1">
          <mxGeometry x="696" y="497" width="180" height="52" as="geometry" />
        </mxCell>
        <mxCell id="Y5ffWVeLKaedBnNB1SG8-135" style="edgeStyle=orthogonalEdgeStyle;rounded=0;orthogonalLoop=1;jettySize=auto;html=1;fontSize=14;fontColor=#1A1A1A;" edge="1" parent="1" source="Y5ffWVeLKaedBnNB1SG8-62">
          <mxGeometry relative="1" as="geometry">
            <mxPoint x="510" y="371" as="targetPoint" />
          </mxGeometry>
        </mxCell>
        <mxCell id="Y5ffWVeLKaedBnNB1SG8-136" style="edgeStyle=orthogonalEdgeStyle;rounded=0;orthogonalLoop=1;jettySize=auto;html=1;entryX=0;entryY=0.5;entryDx=0;entryDy=0;fontSize=14;fontColor=#1A1A1A;" edge="1" parent="1" source="Y5ffWVeLKaedBnNB1SG8-62" target="Y5ffWVeLKaedBnNB1SG8-53">
          <mxGeometry relative="1" as="geometry">
            <Array as="points">
              <mxPoint x="460" y="371" />
              <mxPoint x="460" y="424" />
            </Array>
          </mxGeometry>
        </mxCell>
        <mxCell id="Y5ffWVeLKaedBnNB1SG8-62" value="ALB" style="html=1;overflow=block;blockSpacing=1;whiteSpace=wrap;shape=mxgraph.aws4.application_load_balancer;labelPosition=center;verticalLabelPosition=bottom;align=center;verticalAlign=top;pointerEvents=1;fontSize=21.7;fontColor=#3a414a;spacing=0;strokeColor=#3a414a;strokeOpacity=100;rounded=1;absoluteArcSize=1;arcSize=9;fillColor=#693cc5;strokeWidth=0.8;lucidId=6t1THYGJJjmS;" vertex="1" parent="1">
          <mxGeometry x="155" y="323" width="100" height="95" as="geometry" />
        </mxCell>
        <mxCell id="Y5ffWVeLKaedBnNB1SG8-63" value="ALB Security Group" style="html=1;overflow=block;blockSpacing=1;whiteSpace=wrap;fontSize=18.3;fontColor=#3a414a;spacing=3.8;strokeOpacity=0;fillOpacity=0;rounded=1;absoluteArcSize=1;arcSize=9;fillColor=#ffffff;strokeWidth=0.8;lucidId=hu1TetaForTg;" vertex="1" parent="1">
          <mxGeometry x="115" y="273" width="180" height="56" as="geometry" />
        </mxCell>
        <mxCell id="Y5ffWVeLKaedBnNB1SG8-65" value="" style="html=1;overflow=block;blockSpacing=1;whiteSpace=wrap;fontSize=13;spacing=9;strokeColor=#3a414a;strokeOpacity=100;fillOpacity=100;fillColor=#b0084d;strokeWidth=0.8;lucidId=Ux0TUwAn13kx;container=1;collapsible=0;" vertex="1" parent="1">
          <mxGeometry x="-764" y="52" width="74.84" height="70" as="geometry" />
        </mxCell>
        <mxCell id="Y5ffWVeLKaedBnNB1SG8-72" value="" style="sketch=0;outlineConnect=0;fontColor=#232F3E;gradientColor=none;fillColor=#FFFFFF;strokeColor=#FFFFFF;dashed=0;verticalLabelPosition=bottom;verticalAlign=top;align=center;html=1;fontSize=12;fontStyle=0;aspect=fixed;pointerEvents=1;shape=mxgraph.aws4.stack;" vertex="1" parent="Y5ffWVeLKaedBnNB1SG8-65">
          <mxGeometry x="0.79" y="-2.16" width="74.05" height="72.16" as="geometry" />
        </mxCell>
        <mxCell id="Y5ffWVeLKaedBnNB1SG8-74" value="" style="sketch=0;outlineConnect=0;fontColor=#232F3E;gradientColor=none;fillColor=#B0084D;strokeColor=none;dashed=0;verticalLabelPosition=bottom;verticalAlign=top;align=center;html=1;fontSize=12;fontStyle=0;aspect=fixed;pointerEvents=1;shape=mxgraph.aws4.template;" vertex="1" parent="1">
          <mxGeometry x="-689.16" y="353" width="58.33" height="70" as="geometry" />
        </mxCell>
        <mxCell id="Y5ffWVeLKaedBnNB1SG8-79" value="" style="sketch=0;outlineConnect=0;fontColor=#232F3E;gradientColor=none;fillColor=#B0084D;strokeColor=none;dashed=0;verticalLabelPosition=bottom;verticalAlign=top;align=center;html=1;fontSize=12;fontStyle=0;aspect=fixed;pointerEvents=1;shape=mxgraph.aws4.template;" vertex="1" parent="1">
          <mxGeometry x="-249.16" y="353" width="58.33" height="70" as="geometry" />
        </mxCell>
        <mxCell id="Y5ffWVeLKaedBnNB1SG8-80" value="" style="sketch=0;outlineConnect=0;fontColor=#232F3E;gradientColor=none;fillColor=#B0084D;strokeColor=none;dashed=0;verticalLabelPosition=bottom;verticalAlign=top;align=center;html=1;fontSize=12;fontStyle=0;aspect=fixed;pointerEvents=1;shape=mxgraph.aws4.template;" vertex="1" parent="1">
          <mxGeometry x="-390.32" y="148" width="58.33" height="70" as="geometry" />
        </mxCell>
        <mxCell id="Y5ffWVeLKaedBnNB1SG8-81" value="" style="sketch=0;outlineConnect=0;fontColor=#232F3E;gradientColor=none;fillColor=#B0084D;strokeColor=none;dashed=0;verticalLabelPosition=bottom;verticalAlign=top;align=center;html=1;fontSize=12;fontStyle=0;aspect=fixed;pointerEvents=1;shape=mxgraph.aws4.template;" vertex="1" parent="1">
          <mxGeometry x="-390.33" y="354" width="58.33" height="70" as="geometry" />
        </mxCell>
        <mxCell id="Y5ffWVeLKaedBnNB1SG8-83" value="&lt;font style=&quot;font-size: 14px;&quot;&gt;Networking&lt;/font&gt;" style="text;strokeColor=none;align=center;fillColor=none;html=1;verticalAlign=middle;whiteSpace=wrap;rounded=0;" vertex="1" parent="1">
          <mxGeometry x="-720" y="423" width="120" height="30" as="geometry" />
        </mxCell>
        <mxCell id="Y5ffWVeLKaedBnNB1SG8-86" value="&lt;font style=&quot;font-size: 14px;&quot;&gt;Service&lt;/font&gt;" style="text;strokeColor=none;align=center;fillColor=none;html=1;verticalAlign=middle;whiteSpace=wrap;rounded=0;" vertex="1" parent="1">
          <mxGeometry x="-280" y="423" width="120" height="30" as="geometry" />
        </mxCell>
        <mxCell id="Y5ffWVeLKaedBnNB1SG8-87" value="&lt;font style=&quot;font-size: 14px;&quot;&gt;CI/CD&lt;/font&gt;" style="text;strokeColor=none;align=center;fillColor=none;html=1;verticalAlign=middle;whiteSpace=wrap;rounded=0;" vertex="1" parent="1">
          <mxGeometry x="-421.16" y="218" width="120" height="30" as="geometry" />
        </mxCell>
        <mxCell id="Y5ffWVeLKaedBnNB1SG8-88" value="&lt;font style=&quot;font-size: 14px;&quot;&gt;Cluster&lt;/font&gt;" style="text;strokeColor=none;align=center;fillColor=none;html=1;verticalAlign=middle;whiteSpace=wrap;rounded=0;" vertex="1" parent="1">
          <mxGeometry x="-421.16" y="424" width="120" height="30" as="geometry" />
        </mxCell>
        <mxCell id="Y5ffWVeLKaedBnNB1SG8-89" value="" style="shape=crossbar;whiteSpace=wrap;html=1;rounded=1;strokeColor=#FFFFFF;fontSize=14;fillColor=#FFFFFF;" vertex="1" parent="1">
          <mxGeometry x="1826.999999999999" y="445" width="120" height="20" as="geometry" />
        </mxCell>
        <mxCell id="Y5ffWVeLKaedBnNB1SG8-137" style="edgeStyle=orthogonalEdgeStyle;rounded=0;orthogonalLoop=1;jettySize=auto;html=1;exitX=0.5;exitY=1;exitDx=0;exitDy=0;exitPerimeter=0;entryX=0.992;entryY=0.403;entryDx=0;entryDy=0;entryPerimeter=0;fontSize=14;fontColor=#1A1A1A;" edge="1" parent="1" source="Y5ffWVeLKaedBnNB1SG8-90" target="Y5ffWVeLKaedBnNB1SG8-62">
          <mxGeometry relative="1" as="geometry" />
        </mxCell>
        <mxCell id="Y5ffWVeLKaedBnNB1SG8-90" value="" style="sketch=0;points=[[0,0,0],[0.25,0,0],[0.5,0,0],[0.75,0,0],[1,0,0],[0,1,0],[0.25,1,0],[0.5,1,0],[0.75,1,0],[1,1,0],[0,0.25,0],[0,0.5,0],[0,0.75,0],[1,0.25,0],[1,0.5,0],[1,0.75,0]];outlineConnect=0;fontColor=#232F3E;gradientColor=#F54749;gradientDirection=north;fillColor=#C7131F;strokeColor=#ffffff;dashed=0;verticalLabelPosition=bottom;verticalAlign=top;align=center;html=1;fontSize=12;fontStyle=0;aspect=fixed;shape=mxgraph.aws4.resourceIcon;resIcon=mxgraph.aws4.certificate_manager_3;" vertex="1" parent="1">
          <mxGeometry x="430" y="109" width="71" height="71" as="geometry" />
        </mxCell>
        <mxCell id="Y5ffWVeLKaedBnNB1SG8-91" value="attached to.." style="html=1;overflow=block;blockSpacing=1;whiteSpace=wrap;fontSize=18.3;fontColor=#3a414a;fontStyle=1;spacing=3.8;strokeOpacity=0;fillOpacity=0;rounded=1;absoluteArcSize=1;arcSize=9;fillColor=#ffffff;strokeWidth=0.8;lucidId=4p1TsErLXbFY;" vertex="1" parent="1">
          <mxGeometry x="430" y="190" width="180" height="45" as="geometry" />
        </mxCell>
        <mxCell id="Y5ffWVeLKaedBnNB1SG8-92" value="ACM Certificate" style="html=1;overflow=block;blockSpacing=1;whiteSpace=wrap;fontSize=18.3;fontColor=#3a414a;fontStyle=1;spacing=3.8;strokeOpacity=0;fillOpacity=0;rounded=1;absoluteArcSize=1;arcSize=9;fillColor=#ffffff;strokeWidth=0.8;lucidId=4p1TsErLXbFY;" vertex="1" parent="1">
          <mxGeometry x="500" y="100" width="180" height="45" as="geometry" />
        </mxCell>
        <mxCell id="Y5ffWVeLKaedBnNB1SG8-96" value="" style="group" vertex="1" connectable="0" parent="1">
          <mxGeometry x="520" y="138" width="140" height="50" as="geometry" />
        </mxCell>
        <mxCell id="Y5ffWVeLKaedBnNB1SG8-94" value="&lt;div style=&quot;border-color: var(--border-color); font-family: Helvetica; font-style: normal; font-variant-ligatures: normal; font-variant-caps: normal; font-weight: 400; letter-spacing: normal; orphans: 2; text-indent: 0px; text-transform: none; widows: 2; word-spacing: 0px; -webkit-text-stroke-width: 0px; background-color: rgb(251, 251, 251); text-decoration-thickness: initial; text-decoration-style: initial; text-decoration-color: initial; display: flex; justify-content: flex-start; align-items: baseline; line-height: 1.25; margin-top: -2px;&quot;&gt;&lt;span style=&quot;border-color: var(--border-color);&quot;&gt;&lt;font color=&quot;#3a414a&quot;&gt;&lt;span style=&quot;font-size: 18.3px;&quot;&gt;*.cloudproject.uk&lt;/span&gt;&lt;/font&gt;&lt;/span&gt;&lt;span style=&quot;border-color: var(--border-color);&quot;&gt;&lt;font color=&quot;#3a414a&quot;&gt;&lt;span style=&quot;font-size: 18.3px;&quot;&gt;&lt;br&gt;&lt;/span&gt;&lt;/font&gt;&lt;/span&gt;&lt;span style=&quot;border-color: var(--border-color);&quot;&gt;&lt;font color=&quot;#3a414a&quot;&gt;&lt;span style=&quot;font-size: 18.3px;&quot;&gt;&lt;br&gt;&lt;/span&gt;&lt;/font&gt;&lt;/span&gt;&lt;span style=&quot;border-color: var(--border-color);&quot;&gt;&lt;br&gt;&lt;/span&gt;&lt;/div&gt;" style="text;whiteSpace=wrap;html=1;fontSize=14;" vertex="1" parent="Y5ffWVeLKaedBnNB1SG8-96">
          <mxGeometry width="140" height="30" as="geometry" />
        </mxCell>
        <mxCell id="Y5ffWVeLKaedBnNB1SG8-95" value="&lt;div style=&quot;border-color: var(--border-color); font-family: Helvetica; font-style: normal; font-variant-ligatures: normal; font-variant-caps: normal; font-weight: 400; letter-spacing: normal; orphans: 2; text-indent: 0px; text-transform: none; widows: 2; word-spacing: 0px; -webkit-text-stroke-width: 0px; background-color: rgb(251, 251, 251); text-decoration-thickness: initial; text-decoration-style: initial; text-decoration-color: initial; display: flex; justify-content: flex-start; align-items: baseline; line-height: 1.25; margin-top: -2px;&quot;&gt;&lt;span style=&quot;border-color: var(--border-color);&quot;&gt;&lt;font color=&quot;#3a414a&quot;&gt;&lt;span style=&quot;font-size: 18.3px;&quot;&gt;cloudproject.uk&lt;/span&gt;&lt;/font&gt;&lt;/span&gt;&lt;span style=&quot;border-color: var(--border-color);&quot;&gt;&lt;font color=&quot;#3a414a&quot;&gt;&lt;span style=&quot;font-size: 18.3px;&quot;&gt;&lt;br&gt;&lt;/span&gt;&lt;/font&gt;&lt;/span&gt;&lt;span style=&quot;border-color: var(--border-color);&quot;&gt;&lt;font color=&quot;#3a414a&quot;&gt;&lt;span style=&quot;font-size: 18.3px;&quot;&gt;&lt;br&gt;&lt;/span&gt;&lt;/font&gt;&lt;/span&gt;&lt;span style=&quot;border-color: var(--border-color);&quot;&gt;&lt;br&gt;&lt;/span&gt;&lt;/div&gt;" style="text;whiteSpace=wrap;html=1;fontSize=14;" vertex="1" parent="Y5ffWVeLKaedBnNB1SG8-96">
          <mxGeometry y="20" width="140" height="30" as="geometry" />
        </mxCell>
        <mxCell id="Y5ffWVeLKaedBnNB1SG8-107" value="&lt;b&gt;Incoming&lt;/b&gt;" style="html=1;overflow=block;blockSpacing=1;whiteSpace=wrap;fontSize=18.3;fontColor=#3a414a;spacing=3.8;strokeOpacity=0;fillOpacity=0;rounded=1;absoluteArcSize=1;arcSize=9;fillColor=#ffffff;strokeWidth=0.8;lucidId=hu1TetaForTg;align=left;" vertex="1" parent="1">
          <mxGeometry x="87" y="440" width="180" height="56" as="geometry" />
        </mxCell>
        <mxCell id="Y5ffWVeLKaedBnNB1SG8-108" value="&lt;font style=&quot;font-size: 14px;&quot;&gt;&lt;b&gt;HTTP &lt;/b&gt;TCP 80 0.0.0.0/0&lt;/font&gt;" style="html=1;overflow=block;blockSpacing=1;whiteSpace=wrap;fontSize=18.3;fontColor=#3a414a;spacing=3.8;strokeOpacity=0;fillOpacity=0;rounded=1;absoluteArcSize=1;arcSize=9;fillColor=#ffffff;strokeWidth=0.8;lucidId=hu1TetaForTg;" vertex="1" parent="1">
          <mxGeometry x="62" y="484" width="200" height="25" as="geometry" />
        </mxCell>
        <mxCell id="Y5ffWVeLKaedBnNB1SG8-109" value="&lt;font style=&quot;font-size: 14px;&quot;&gt;&lt;b&gt;HTTPS &lt;/b&gt;TCP 443 0.0.0.0/0&lt;/font&gt;" style="html=1;overflow=block;blockSpacing=1;whiteSpace=wrap;fontSize=18.3;fontColor=#3a414a;spacing=3.8;strokeOpacity=0;fillOpacity=0;rounded=1;absoluteArcSize=1;arcSize=9;fillColor=#ffffff;strokeWidth=0.8;lucidId=hu1TetaForTg;" vertex="1" parent="1">
          <mxGeometry x="55" y="509" width="230" height="24" as="geometry" />
        </mxCell>
        <mxCell id="Y5ffWVeLKaedBnNB1SG8-110" value="&lt;b&gt;Outgress&lt;/b&gt;" style="html=1;overflow=block;blockSpacing=1;whiteSpace=wrap;fontSize=18.3;fontColor=#3a414a;spacing=3.8;strokeOpacity=0;fillOpacity=0;rounded=1;absoluteArcSize=1;arcSize=9;fillColor=#ffffff;strokeWidth=0.8;lucidId=hu1TetaForTg;align=left;" vertex="1" parent="1">
          <mxGeometry x="87" y="546" width="180" height="56" as="geometry" />
        </mxCell>
        <mxCell id="Y5ffWVeLKaedBnNB1SG8-111" value="&lt;span style=&quot;font-size: 14px;&quot;&gt;&lt;b&gt;TCP ALL 0.0.0.0/0&lt;/b&gt;&lt;/span&gt;" style="html=1;overflow=block;blockSpacing=1;whiteSpace=wrap;fontSize=18.3;fontColor=#3a414a;spacing=3.8;strokeOpacity=0;fillOpacity=0;rounded=1;absoluteArcSize=1;arcSize=9;fillColor=#ffffff;strokeWidth=0.8;lucidId=hu1TetaForTg;" vertex="1" parent="1">
          <mxGeometry x="48" y="582" width="200" height="25" as="geometry" />
        </mxCell>
        <mxCell id="Y5ffWVeLKaedBnNB1SG8-112" value="" style="sketch=0;points=[[0,0,0],[0.25,0,0],[0.5,0,0],[0.75,0,0],[1,0,0],[0,1,0],[0.25,1,0],[0.5,1,0],[0.75,1,0],[1,1,0],[0,0.25,0],[0,0.5,0],[0,0.75,0],[1,0.25,0],[1,0.5,0],[1,0.75,0]];outlineConnect=0;fontColor=#232F3E;gradientColor=#945DF2;gradientDirection=north;fillColor=#5A30B5;strokeColor=#ffffff;dashed=0;verticalLabelPosition=bottom;verticalAlign=top;align=center;html=1;fontSize=12;fontStyle=0;aspect=fixed;shape=mxgraph.aws4.resourceIcon;resIcon=mxgraph.aws4.cloud_map;" vertex="1" parent="1">
          <mxGeometry x="2019" y="241" width="78" height="78" as="geometry" />
        </mxCell>
        <mxCell id="Y5ffWVeLKaedBnNB1SG8-113" value="&lt;div style=&quot;border-color: var(--border-color); font-family: Helvetica; font-style: normal; font-variant-ligatures: normal; font-variant-caps: normal; letter-spacing: normal; orphans: 2; text-indent: 0px; text-transform: none; widows: 2; word-spacing: 0px; -webkit-text-stroke-width: 0px; background-color: rgb(251, 251, 251); text-decoration-thickness: initial; text-decoration-style: initial; text-decoration-color: initial; display: flex; justify-content: flex-start; text-align: left; align-items: baseline; line-height: 1.25; margin-top: -2px;&quot;&gt;&lt;span style=&quot;border-color: var(--border-color);&quot;&gt;&lt;font style=&quot;&quot; color=&quot;#3a414a&quot;&gt;&lt;span style=&quot;font-size: 18.3px;&quot;&gt;&lt;b&gt;Cloud Map Namespace&lt;/b&gt;&lt;/span&gt;&lt;/font&gt;&lt;/span&gt;&lt;/div&gt;" style="text;whiteSpace=wrap;html=1;fontSize=14;" vertex="1" parent="1">
          <mxGeometry x="2103" y="249" width="220" height="70" as="geometry" />
        </mxCell>
        <mxCell id="Y5ffWVeLKaedBnNB1SG8-114" value="&lt;div style=&quot;border-color: var(--border-color); font-family: Helvetica; font-style: normal; font-variant-ligatures: normal; font-variant-caps: normal; font-weight: 400; letter-spacing: normal; orphans: 2; text-indent: 0px; text-transform: none; widows: 2; word-spacing: 0px; -webkit-text-stroke-width: 0px; background-color: rgb(251, 251, 251); text-decoration-thickness: initial; text-decoration-style: initial; text-decoration-color: initial; display: flex; justify-content: flex-start; text-align: left; align-items: baseline; line-height: 1.25; margin-top: -2px;&quot;&gt;&lt;span style=&quot;border-color: var(--border-color);&quot;&gt;&lt;font color=&quot;#3a414a&quot;&gt;&lt;span style=&quot;font-size: 18.3px;&quot;&gt;Cruddur&lt;/span&gt;&lt;/font&gt;&lt;/span&gt;&lt;/div&gt;" style="text;whiteSpace=wrap;html=1;fontSize=14;" vertex="1" parent="1">
          <mxGeometry x="2103" y="279" width="220" height="70" as="geometry" />
        </mxCell>
        <mxCell id="Y5ffWVeLKaedBnNB1SG8-115" value="&lt;font color=&quot;#1a1a1a&quot; style=&quot;font-size: 14px;&quot;&gt;&lt;b&gt;CruddurVPC&lt;/b&gt;&lt;/font&gt;" style="points=[[0,0],[0.25,0],[0.5,0],[0.75,0],[1,0],[1,0.25],[1,0.5],[1,0.75],[1,1],[0.75,1],[0.5,1],[0.25,1],[0,1],[0,0.75],[0,0.5],[0,0.25]];outlineConnect=0;gradientColor=none;html=1;whiteSpace=wrap;fontSize=12;fontStyle=0;container=1;pointerEvents=0;collapsible=0;recursiveResize=0;shape=mxgraph.aws4.group;grIcon=mxgraph.aws4.group_vpc;strokeColor=#248814;fillColor=none;verticalAlign=top;align=left;spacingLeft=30;fontColor=#AAB7B8;dashed=0;" vertex="1" parent="1">
          <mxGeometry x="-70" y="230" width="2060" height="620" as="geometry" />
        </mxCell>
        <mxCell id="Y5ffWVeLKaedBnNB1SG8-134" value="&lt;b style=&quot;border-color: var(--border-color); color: rgb(26, 26, 26); font-family: Helvetica; font-size: 14px; font-style: normal; font-variant-ligatures: normal; font-variant-caps: normal; letter-spacing: normal; orphans: 2; text-align: left; text-indent: 0px; text-transform: none; widows: 2; word-spacing: 0px; -webkit-text-stroke-width: 0px; background-color: rgb(251, 251, 251); text-decoration-thickness: initial; text-decoration-style: initial; text-decoration-color: initial;&quot;&gt;10.0.0.0/32&lt;/b&gt;" style="text;whiteSpace=wrap;html=1;fontSize=14;fontColor=#1A1A1A;" vertex="1" parent="Y5ffWVeLKaedBnNB1SG8-115">
          <mxGeometry x="30" y="19" width="120" height="40" as="geometry" />
        </mxCell>
        <mxCell id="Y5ffWVeLKaedBnNB1SG8-52" value="&lt;div style=&quot;display: flex; justify-content: flex-start; text-align: left; align-items: baseline; font-size: 0; line-height: 1.25;margin-top: -2px;&quot;&gt;&lt;span&gt;&lt;span style=&quot;font-size:18.3px;color:#3a414a;&quot;&gt;HTTPListerner&#xa;&lt;/span&gt;&lt;/span&gt;&lt;/div&gt;&lt;div style=&quot;display: flex; justify-content: flex-start; text-align: left; align-items: baseline; font-size: 0; line-height: 1.25;margin-top: -2px;&quot;&gt;&lt;span&gt;&lt;span style=&quot;font-size:18.3px;color:#3a414a;&quot;&gt;Port 80&lt;/span&gt;&lt;/span&gt;&lt;/div&gt;" style="html=1;overflow=block;blockSpacing=1;whiteSpace=wrap;fontSize=13;spacing=9;verticalAlign=top;strokeColor=#3a414a;strokeOpacity=100;rounded=1;absoluteArcSize=1;arcSize=9;strokeWidth=0.8;lucidId=to1TdnFgJkd1;" vertex="1" parent="Y5ffWVeLKaedBnNB1SG8-115">
          <mxGeometry x="583" y="84" width="230" height="66" as="geometry" />
        </mxCell>
        <mxCell id="Y5ffWVeLKaedBnNB1SG8-153" style="rounded=0;orthogonalLoop=1;jettySize=auto;html=1;fontSize=14;fontColor=#1A1A1A;elbow=vertical;edgeStyle=orthogonalEdgeStyle;" edge="1" parent="Y5ffWVeLKaedBnNB1SG8-115">
          <mxGeometry relative="1" as="geometry">
            <mxPoint x="2040" y="436" as="targetPoint" />
            <mxPoint x="1510" y="420" as="sourcePoint" />
            <Array as="points">
              <mxPoint x="1510" y="446" />
              <mxPoint x="2040" y="446" />
            </Array>
          </mxGeometry>
        </mxCell>
        <mxCell id="Y5ffWVeLKaedBnNB1SG8-61" value="Default route" style="html=1;overflow=block;blockSpacing=1;whiteSpace=wrap;fontSize=18.3;fontColor=#3a414a;fontStyle=1;spacing=3.8;strokeOpacity=0;fillOpacity=0;rounded=1;absoluteArcSize=1;arcSize=9;fillColor=#ffffff;strokeWidth=0.8;lucidId=2q1TMY3O_R2z;" vertex="1" parent="Y5ffWVeLKaedBnNB1SG8-115">
          <mxGeometry x="680" y="400" width="180" height="45" as="geometry" />
        </mxCell>
        <mxCell id="Y5ffWVeLKaedBnNB1SG8-122" value="" style="sketch=0;outlineConnect=0;fontColor=#232F3E;gradientColor=none;fillColor=#4D27AA;strokeColor=none;dashed=0;verticalLabelPosition=bottom;verticalAlign=top;align=center;html=1;fontSize=12;fontStyle=0;aspect=fixed;pointerEvents=1;shape=mxgraph.aws4.route_table;" vertex="1" parent="1">
          <mxGeometry x="1470" y="108" width="78" height="76" as="geometry" />
        </mxCell>
        <mxCell id="Y5ffWVeLKaedBnNB1SG8-123" value="CruddurRT" style="text;html=1;resizable=0;labelBackgroundColor=default;align=center;verticalAlign=middle;fontStyle=1;fontColor=#333333;fontSize=13.3;" vertex="1" parent="1">
          <mxGeometry x="1529.999999999999" y="209.00000000000045" as="geometry">
            <mxPoint x="-14" y="-4" as="offset" />
          </mxGeometry>
        </mxCell>
        <mxCell id="Y5ffWVeLKaedBnNB1SG8-138" style="edgeStyle=orthogonalEdgeStyle;rounded=0;orthogonalLoop=1;jettySize=auto;html=1;entryX=0.864;entryY=0.016;entryDx=0;entryDy=0;entryPerimeter=0;fontSize=14;fontColor=#1A1A1A;" edge="1" parent="1" source="Y5ffWVeLKaedBnNB1SG8-13" target="Y5ffWVeLKaedBnNB1SG8-115">
          <mxGeometry relative="1" as="geometry">
            <Array as="points">
              <mxPoint x="1560" y="830" />
              <mxPoint x="1970" y="830" />
              <mxPoint x="1970" y="260" />
              <mxPoint x="1710" y="260" />
            </Array>
          </mxGeometry>
        </mxCell>
        <mxCell id="Y5ffWVeLKaedBnNB1SG8-158" value="Subnet Direction Associations" style="edgeLabel;html=1;align=center;verticalAlign=middle;resizable=0;points=[];fontSize=14;fontColor=#1A1A1A;" vertex="1" connectable="0" parent="Y5ffWVeLKaedBnNB1SG8-138">
          <mxGeometry x="0.7473" y="-1" relative="1" as="geometry">
            <mxPoint as="offset" />
          </mxGeometry>
        </mxCell>
      </root>
    </mxGraphModel>
  </diagram>
</mxfile>
